# xmcd CD database file
#
# Track frame offsets:
#	182
#	18251
#	38118
#	68228
#
# Disc length: 1527 seconds
#
# Revision: 3
# Processed by: cddbd v1.5.1PL0 Copyright (c) Steve Scherf et al.
# Submitted via: CDex 1.51
#
DISCID=2a05f504
DTITLE=Shania Twain - Don't!
DYEAR=2004
DGENRE=Country
TTITLE0=Don't!
TTITLE1=I'm Gonna Getcha Good!
TTITLE2=From This Moment On
TTITLE3=Don't! - Video
EXTD=YEAR: 2004
EXTT0=
EXTT1=
EXTT2=
EXTT3=
PLAYORDER=
